<svg width="18" height="22" viewBox="0 0 18 22" fill="none" xmlns="http://www.w3.org/2000/svg">
<path d="M13 5C13.5523 5 14 5.44772 14 6C14 6.55228 13.5523 7 13 7H5C4.44772 7 4 6.55228 4 6C4 5.44772 4.44772 5 5 5H13Z" fill="black"/>
<path d="M9 9C9.55228 9 10 9.44772 10 10C10 10.5523 9.55228 11 9 11H5C4.44772 11 4 10.5523 4 10C4 9.44772 4.44772 9 5 9H9Z" fill="black"/>
<path d="M16 12.3428V9C16 7.08611 15.9977 5.75127 15.8623 4.74414C15.7308 3.76582 15.4901 3.24792 15.1211 2.87891C14.7521 2.50992 14.2342 2.26924 13.2559 2.1377C12.2487 2.00229 10.9139 2 9 2C7.08612 2 5.75128 2.00229 4.74414 2.1377C3.76581 2.26924 3.24792 2.5099 2.87891 2.87891C2.5099 3.24792 2.26924 3.7658 2.1377 4.74414C2.00229 5.75128 2 7.08611 2 9V13.5439C2 15.1904 2.00212 16.3387 2.10449 17.2158C2.20439 18.0714 2.38853 18.5399 2.66504 18.8828H2.66406C2.79828 19.0493 2.95068 19.2007 3.11719 19.335C3.46013 19.6115 3.92858 19.7956 4.78418 19.8955C5.6613 19.9979 6.80961 20 8.45606 20C8.6881 20 8.86402 19.997 9 19.9941C9 18.611 8.99846 17.473 9.11914 16.5752C9.24389 15.6474 9.51576 14.828 10.1719 14.1719C10.828 13.5158 11.6474 13.2439 12.5752 13.1191C13.4723 12.9985 14.6093 13 15.9912 13C15.9955 12.8392 16 12.6273 16 12.3428ZM14.5781 15.0078C13.8657 15.0169 13.3048 15.0384 12.8418 15.1006C12.1358 15.1955 11.8085 15.3634 11.5859 15.5859C11.3634 15.8085 11.1955 16.1358 11.1006 16.8418C11.0384 17.3048 11.0169 17.8657 11.0078 18.5781L14.5781 15.0078ZM18 12.3428C18 13.0786 18.0174 13.7254 17.7715 14.3193C17.5254 14.9134 17.0556 15.3585 16.5352 15.8789L11.7988 20.6152C11.3492 21.0649 10.9652 21.4671 10.4658 21.7061V21.707C10.4179 21.7299 10.3687 21.751 10.3193 21.7715L10.1699 21.8291C9.64787 22.0133 9.09187 22 8.45606 22C6.85773 22 5.57185 22.0019 4.55176 21.8828C3.51014 21.7612 2.61736 21.5022 1.86133 20.8926C1.5839 20.6689 1.33115 20.4161 1.10742 20.1387C0.497867 19.3826 0.23881 18.4899 0.117189 17.4482C-0.00191282 16.4282 1.8579e-06 15.1423 1.8579e-06 13.5439V9C1.8579e-06 7.14265 -0.00221173 5.64892 0.155275 4.47754C0.316636 3.27744 0.662315 2.26738 1.46485 1.46485C2.26738 0.66232 3.27745 0.316636 4.47754 0.155275C5.64892 -0.00221212 7.14266 1.65534e-06 9 1.65534e-06C10.8573 1.65534e-06 12.3511 -0.002212 13.5225 0.155275C14.7226 0.316634 15.7327 0.662296 16.5352 1.46485C17.3377 2.26737 17.6834 3.27745 17.8447 4.47754C18.0022 5.64892 18 7.14265 18 9V12.3428Z" fill="black"/>
</svg>
