<svg width="22" height="22" viewBox="0 0 22 22" fill="none" xmlns="http://www.w3.org/2000/svg">
<path d="M11 21C16.5228 21 21 16.5228 21 11C21 5.47715 16.5228 1 11 1C5.47715 1 1 5.47715 1 11C1 16.5228 5.47715 21 11 21Z" fill="#FFE0DF"/>
<path d="M20 11C20 6.02944 15.9706 2 11 2C6.02944 2 2 6.02944 2 11C2 15.9706 6.02944 20 11 20C15.9706 20 20 15.9706 20 11ZM22 11C22 17.0751 17.0751 22 11 22C4.92487 22 0 17.0751 0 11C0 4.92487 4.92487 0 11 0C17.0751 0 22 4.92487 22 11Z" fill="#AD214E"/>
<path d="M10 11.5V7C10 6.44772 10.4477 6 11 6C11.5523 6 12 6.44772 12 7V11.5C12 12.0523 11.5523 12.5 11 12.5C10.4477 12.5 10 12.0523 10 11.5Z" fill="#AD214E"/>
<path d="M10 14.998V14.9883C10 14.436 10.4477 13.9883 11 13.9883C11.5523 13.9883 12 14.436 12 14.9883V14.998C12 15.5503 11.5523 15.998 11 15.998C10.4477 15.998 10 15.5503 10 14.998Z" fill="#AD214E"/>
</svg>
