<svg width="22" height="22" viewBox="0 0 22 22" fill="none" xmlns="http://www.w3.org/2000/svg">
<path d="M21 11C21 5.47715 16.5228 1 11 1C5.47715 1 1 5.47715 1 11C1 16.5228 5.47715 21 11 21C16.5228 21 21 16.5228 21 11Z" fill="#BEF2C7"/>
<path d="M20 11C20 6.02944 15.9705 2 11 2C6.02943 2 2 6.02943 2 11C2 15.9705 6.02944 20 11 20C15.9705 20 20 15.9705 20 11ZM22 11C22 17.0751 17.0751 22 11 22C4.92486 22 0 17.0751 0 11C0 4.92487 4.92487 0 11 0C17.0751 0 22 4.92486 22 11Z" fill="#13594C"/>
<path d="M15.7373 8.67578L9.53125 15.4453L6.29297 12.207L7.70703 10.793L9.46777 12.5537L14.2627 7.32422L15.7373 8.67578Z" fill="#13594C"/>
</svg>
